<svg xmlns="http://www.w3.org/2000/svg" width="840" height="316" viewBox="0 0 840 316" font-family="'Segoe UI','Helvetica Neue',Arial,sans-serif">
  <rect width="840" height="316" rx="10" fill="#313338"/>

  <!-- avatar -->
  <circle cx="52" cy="58" r="22" fill="#5865f2"/>
  <text x="52" y="66" font-size="22" text-anchor="middle">&#9200;</text>

  <!-- header row -->
  <text x="86" y="50" font-size="16.5" font-weight="700" fill="#f2f3f5">Reminder Bot</text>
  <rect x="212" y="37" width="40" height="18" rx="4" fill="#5865f2"/>
  <text x="232" y="50" font-size="11" font-weight="700" text-anchor="middle" fill="#ffffff">APP</text>
  <text x="264" y="50" font-size="12.5" fill="#949ba4">Today at 09:00</text>

  <!-- ping -->
  <rect x="86" y="62" width="66" height="22" rx="5" fill="#3c3f82"/>
  <text x="95" y="78" font-size="13.5" fill="#c9cdfb">@Nicole</text>

  <!-- embed -->
  <rect x="86" y="94" width="700" height="158" rx="8" fill="#2b2d31"/>
  <rect x="86" y="94" width="5" height="158" rx="2.5" fill="#f1c40f"/>

  <text x="112" y="128" font-size="16" font-weight="700" fill="#f2f3f5">&#9200; Take your vitamins</text>
  <text x="112" y="166" font-size="13.5" font-weight="700" fill="#f2f3f5">&#128196; Details</text>
  <text x="112" y="188" font-size="14.5" fill="#dbdee1">Vitamin D and omega-3 with breakfast</text>
  <line x1="112" y1="214" x2="760" y2="214" stroke="#3a3c42" stroke-width="1"/>
  <text x="112" y="238" font-size="12" fill="#949ba4">Set by Nicole  &#183;  ID: 42  &#183;  recurring daily</text>

  <!-- reactions -->
  <rect x="86" y="270" width="58" height="28" rx="8" fill="#373a53" stroke="#5865f2" stroke-width="1.4"/>
  <text x="101" y="289" font-size="14">&#9989;</text>
  <text x="124" y="289" font-size="13.5" font-weight="700" fill="#c9cdfb">1</text>
  <rect x="154" y="270" width="54" height="28" rx="8" fill="#2b2d31" stroke="#3a3c42" stroke-width="1"/>
  <text x="169" y="289" font-size="14">&#10060;</text>
  <text x="192" y="289" font-size="13.5" fill="#949ba4">0</text>
</svg>
